<svg id="dino3" enable-background="new 0 0 300 300" height="512" viewBox="0 0 300 300" width="512" xmlns="http://www.w3.org/2000/svg"><path d="m275.535 120.617c-.289-1.445-1.352-2.615-2.762-3.043-1.42-.428-2.947-.045-3.988 1-16.891 16.885-35.916 12.729-48.898 6.271-10.293-5.121-20.662-8.232-30.816-9.248l-23.283-2.328c-10.748-1.074-21.324-4.58-30.584-10.135l-1.279-.768c-8.291-4.975-15.346-11.488-20.969-19.359-6.076-8.506-15.104-14.113-25.422-15.789-10.324-1.676-20.66.789-29.115 6.939l-26.802 19.495c-7.059 5.131-9.35 14.523-5.447 22.33l1.775 3.551c3.297 6.594 10.932 9.623 17.729 7.365l.057.166c1.486 4.459 4.795 8.119 9.082 10.043 4.285 1.928 9.219 1.969 13.543.117l24.225-10.381 4.336 14.451h-9.604c-8.592 0-15.58 6.988-15.58 15.58v6.42c0 5.514 4.486 10 10 10s10-4.486 10-10c0-1.104.896-2 2-2h13.273c5.745 7.213 13.203 12.814 21.585 16.324-1.093 15.975 7.259 24.872 10.908 27.956.193.164.234.379.234.531 0 .322-.215.611-.525.701l-10.625 3.125c-5.211 1.533-8.85 6.398-8.85 11.83v3.533c0 2.209 1.791 4 4 4h8c0 2.209 1.791 4 4 4h38.711c7.328 0 13.289-5.961 13.289-13.289v-8.535c4.322-3.917 16.646-16.399 21.719-34.852 6.989-1.625 13.8-3.895 20.25-6.792 50.503-22.692 46.048-48.137 45.833-49.209zm-147.777 100.677c.189-1.715 1.402-3.193 3.082-3.688l10.623-3.125c3.691-1.084 6.27-4.529 6.27-8.377 0-2.572-1.119-4.992-3.07-6.641-2.56-2.165-8.156-8.276-8.098-19.28 1.602.396 3.22.72 4.86.969 1.03 9.62 4.924 19.992 14.107 29.797.191.203.305.451.305.666 0 .455-.309.846-.746.953l-12.648 3.086c-3.43.838-6.263 2.906-8.165 5.639h-6.52zm98.666-58.765c-4.877 2.189-9.981 3.992-15.215 5.405.696-5.525.689-11.462-.363-17.776-.363-2.176-2.408-3.658-4.604-3.287-2.178.363-3.65 2.424-3.287 4.604 5.416 32.496-21.473 54.846-21.746 55.068-.932.76-1.477 1.902-1.477 3.104v10.359c0 2.916-2.373 5.289-5.289 5.289h-33.201c.795-.898 1.861-1.564 3.098-1.865l12.646-3.088c4.033-.984 6.85-4.572 6.85-8.725 0-2.262-.879-4.443-2.469-6.139-8.529-9.106-11.758-18.718-12.296-27.458.001-.011.008-.02.009-.031.004-.046-.017-.087-.015-.133-.955-16.512 7.663-29.868 8.22-30.711 1.217-1.84.717-4.322-1.121-5.543-1.838-1.217-4.316-.723-5.539 1.111-.146.218-8.642 13.268-9.44 30.337-8.717-1.605-16.789-5.728-23.259-11.757h.729c2.209 0 4-1.791 4-4s-1.791-4-4-4h-24.923c-5.514 0-10 4.486-10 10 0 1.104-.896 2-2 2s-2-.896-2-2v-6.42c0-4.18 3.4-7.58 7.58-7.58h19.576c2.209 0 4-1.791 4-4s-1.791-4-4-4h-1.601c-.057-.182-.125-.356-.18-.539l-6.152-20.504c-.328-1.09-1.105-1.99-2.139-2.473-1.033-.486-2.221-.504-3.27-.053l-28.344 12.146c-2.299.984-4.826.963-7.113-.062-2.285-1.025-3.979-2.898-4.77-5.275l-.369-1.107 32.195-16.098c1.977-.988 2.777-3.391 1.789-5.367-.988-1.975-3.385-2.777-5.367-1.789l-35.299 17.65c-.001.001-.002.002-.003.003l-2.221 1.109c-1.594.797-3.396.924-5.09.363-1.689-.564-3.057-1.75-3.854-3.344l-1.775-3.551c-2.146-4.293-.887-9.459 2.996-12.283l26.803-19.494c6.717-4.885 14.936-6.84 23.125-5.512 8.197 1.332 15.369 5.785 20.195 12.543 6.264 8.77 14.125 16.025 23.361 21.568l1.279.768c10.266 6.158 21.99 10.045 33.904 11.236l23.283 2.328c9.189.918 18.625 3.762 28.051 8.451 10.838 5.387 30.379 11.559 49.23-.553-3.683 7.817-13.464 19.542-39.128 31.075z"/><path d="m65.708 93.99c-2.142 0-3.879 1.737-3.879 3.879s1.737 3.879 3.879 3.879 3.879-1.737 3.879-3.879-1.737-3.879-3.879-3.879z"/></svg>